<svg width="400" height="400" viewBox="0 0 400 400" fill="none" xmlns="http://www.w3.org/2000/svg">
<rect x="1.5" y="1.5" width="397" height="397" fill="#FAFBFF" stroke="#444444" stroke-width="3"/>
<line x1="133.5" y1="6.55671e-08" x2="133.5" y2="400" stroke="#444444" stroke-width="3"/>
<line x1="266.5" y1="6.55671e-08" x2="266.5" y2="400" stroke="#444444" stroke-width="3"/>
<line x1="400" y1="131.5" x2="-1.31134e-07" y2="131.5" stroke="#444444" stroke-width="3"/>
<line x1="400" y1="264.833" x2="-1.31134e-07" y2="264.833" stroke="#444444" stroke-width="3"/>
<path d="M39.6828 77V74.81C39.6828 73.31 39.9428 72.11 40.4628 71.21C41.0028 70.31 41.7428 69.59 42.6828 69.05C43.6428 68.49 44.7828 68.01 46.1028 67.61L47.7528 67.1C48.6528 66.82 49.4428 66.48 50.1228 66.08C50.8028 65.66 51.3328 65.14 51.7128 64.52C52.0928 63.88 52.2828 63.1 52.2828 62.18V62.06C52.2828 60.74 51.8228 59.7 50.9028 58.94C49.9828 58.16 48.8028 57.77 47.3628 57.77C45.8428 57.77 44.6028 58.18 43.6428 59C42.6828 59.8 42.2028 61.02 42.2028 62.66V63.08H39.8028V62.69C39.8028 61.17 40.1328 59.88 40.7928 58.82C41.4528 57.76 42.3528 56.96 43.4928 56.42C44.6328 55.86 45.9228 55.58 47.3628 55.58C48.8028 55.58 50.0728 55.85 51.1728 56.39C52.2928 56.93 53.1628 57.68 53.7828 58.64C54.4028 59.6 54.7128 60.72 54.7128 62V62.27C54.7128 63.63 54.4428 64.76 53.9028 65.66C53.3628 66.54 52.6128 67.26 51.6528 67.82C50.7128 68.38 49.6028 68.86 48.3228 69.26L46.7028 69.77C45.6828 70.09 44.8328 70.43 44.1528 70.79C43.4928 71.13 42.9928 71.57 42.6528 72.11C42.3128 72.65 42.1428 73.38 42.1428 74.3V74.81H54.5328V77H39.6828ZM66.6418 77.42C65.1618 77.42 63.8318 77.14 62.6518 76.58C61.4918 76.02 60.5718 75.21 59.8918 74.15C59.2318 73.09 58.9018 71.81 58.9018 70.31V69.74H61.3318V70.28C61.3318 71.82 61.8218 73.03 62.8018 73.91C63.7818 74.79 65.0618 75.23 66.6418 75.23C68.2418 75.23 69.4818 74.82 70.3618 74C71.2618 73.16 71.7118 72.11 71.7118 70.85V70.61C71.7118 69.69 71.4918 68.95 71.0518 68.39C70.6118 67.81 70.0118 67.39 69.2518 67.13C68.5118 66.85 67.6918 66.71 66.7918 66.71H63.3718V63.68L71.3818 58.55V58.19H59.4118V56H73.9618V59.39L66.1318 64.43V64.79H67.6318C68.8118 64.79 69.8918 65.01 70.8718 65.45C71.8718 65.87 72.6618 66.51 73.2418 67.37C73.8418 68.21 74.1418 69.27 74.1418 70.55V70.88C74.1418 72.2 73.8318 73.35 73.2118 74.33C72.5918 75.31 71.7218 76.07 70.6018 76.61C69.4818 77.15 68.1618 77.42 66.6418 77.42ZM89.0672 77V72.71H78.1172V69.83L86.9372 56H91.4972V70.52H95.0972V72.71H91.4972V77H89.0672ZM80.5472 70.52H89.0672V57.47H88.6472L80.5472 70.16V70.52Z" fill="#2B2B2B"/>
<path d="M180.149 77.42C178.609 77.42 177.279 77.13 176.159 76.55C175.039 75.95 174.169 75.13 173.549 74.09C172.929 73.03 172.619 71.81 172.619 70.43V70.07H175.049V70.34C175.049 71.92 175.509 73.13 176.429 73.97C177.349 74.81 178.569 75.23 180.089 75.23C181.689 75.23 182.939 74.78 183.839 73.88C184.739 72.98 185.189 71.75 185.189 70.19V69.92C185.189 68.42 184.749 67.23 183.869 66.35C183.009 65.45 181.889 65 180.509 65C179.709 65 179.049 65.13 178.529 65.39C178.009 65.63 177.599 65.94 177.299 66.32C176.999 66.68 176.749 67.03 176.549 67.37H173.249V56H187.049V58.19H175.679V65.45H176.099C176.319 65.05 176.619 64.66 176.999 64.28C177.399 63.9 177.929 63.58 178.589 63.32C179.249 63.06 180.069 62.93 181.049 62.93C182.269 62.93 183.369 63.21 184.349 63.77C185.349 64.33 186.139 65.13 186.719 66.17C187.319 67.21 187.619 68.45 187.619 69.89V70.22C187.619 71.64 187.319 72.89 186.719 73.97C186.119 75.05 185.259 75.9 184.139 76.52C183.019 77.12 181.689 77.42 180.149 77.42ZM199.848 77.42C198.408 77.42 197.118 77.14 195.978 76.58C194.858 76 193.968 75.18 193.308 74.12C192.668 73.06 192.348 71.8 192.348 70.34V63.02C192.348 61.44 192.658 60.1 193.278 59C193.898 57.9 194.768 57.06 195.888 56.48C197.028 55.88 198.378 55.58 199.938 55.58C201.478 55.58 202.788 55.86 203.868 56.42C204.968 56.96 205.798 57.71 206.358 58.67C206.938 59.61 207.228 60.7 207.228 61.94H204.768C204.768 60.7 204.368 59.7 203.568 58.94C202.768 58.16 201.558 57.77 199.938 57.77C198.298 57.77 197.028 58.22 196.128 59.12C195.228 60 194.778 61.22 194.778 62.78V65.69H195.198C195.558 65.09 196.158 64.54 196.998 64.04C197.838 63.52 199.008 63.26 200.508 63.26C201.768 63.26 202.918 63.54 203.958 64.1C204.998 64.66 205.828 65.45 206.448 66.47C207.068 67.49 207.378 68.7 207.378 70.1V70.46C207.378 71.88 207.048 73.11 206.388 74.15C205.748 75.19 204.858 76 203.718 76.58C202.578 77.14 201.288 77.42 199.848 77.42ZM199.848 75.23C201.368 75.23 202.598 74.8 203.538 73.94C204.478 73.08 204.948 71.91 204.948 70.43V70.19C204.948 69.19 204.728 68.33 204.288 67.61C203.868 66.89 203.278 66.33 202.518 65.93C201.758 65.51 200.868 65.3 199.848 65.3C198.848 65.3 197.968 65.51 197.208 65.93C196.448 66.33 195.848 66.89 195.408 67.61C194.988 68.33 194.778 69.19 194.778 70.19V70.43C194.778 71.91 195.248 73.08 196.188 73.94C197.128 74.8 198.348 75.23 199.848 75.23ZM214.538 77V76.25C214.538 75.55 214.598 74.96 214.718 74.48C214.838 74 215.068 73.43 215.408 72.77L223.418 58.52V58.19H210.938V56H225.968V58.88L217.598 73.88C217.358 74.3 217.188 74.68 217.088 75.02C217.008 75.36 216.968 75.79 216.968 76.31V77H214.538Z" fill="#2B2B2B"/>
<path d="M311.69 77.42C310.07 77.42 308.66 77.18 307.46 76.7C306.28 76.2 305.36 75.51 304.7 74.63C304.06 73.73 303.74 72.68 303.74 71.48V71.15C303.74 70.11 303.96 69.25 304.4 68.57C304.84 67.89 305.37 67.37 305.99 67.01C306.63 66.63 307.22 66.39 307.76 66.29V65.9C307.22 65.74 306.66 65.48 306.08 65.12C305.52 64.76 305.05 64.27 304.67 63.65C304.31 63.03 304.13 62.27 304.13 61.37V61.04C304.13 59.9 304.45 58.93 305.09 58.13C305.75 57.31 306.65 56.68 307.79 56.24C308.93 55.8 310.23 55.58 311.69 55.58C313.17 55.58 314.47 55.8 315.59 56.24C316.73 56.68 317.62 57.31 318.26 58.13C318.92 58.93 319.25 59.9 319.25 61.04V61.37C319.25 62.27 319.07 63.03 318.71 63.65C318.35 64.27 317.89 64.76 317.33 65.12C316.77 65.48 316.21 65.74 315.65 65.9V66.29C316.21 66.39 316.8 66.63 317.42 67.01C318.04 67.37 318.56 67.89 318.98 68.57C319.42 69.25 319.64 70.11 319.64 71.15V71.48C319.64 72.68 319.32 73.73 318.68 74.63C318.04 75.51 317.12 76.2 315.92 76.7C314.74 77.18 313.33 77.42 311.69 77.42ZM311.69 75.23C313.39 75.23 314.73 74.9 315.71 74.24C316.71 73.58 317.21 72.62 317.21 71.36V71.12C317.21 69.86 316.72 68.9 315.74 68.24C314.76 67.58 313.41 67.25 311.69 67.25C309.99 67.25 308.65 67.58 307.67 68.24C306.69 68.9 306.2 69.86 306.2 71.12V71.36C306.2 72.62 306.69 73.58 307.67 74.24C308.67 74.9 310.01 75.23 311.69 75.23ZM311.69 65.06C313.29 65.06 314.54 64.76 315.44 64.16C316.36 63.54 316.82 62.67 316.82 61.55V61.31C316.82 60.17 316.36 59.3 315.44 58.7C314.52 58.08 313.27 57.77 311.69 57.77C310.11 57.77 308.86 58.08 307.94 58.7C307.02 59.3 306.56 60.17 306.56 61.31V61.55C306.56 62.67 307.02 63.54 307.94 64.16C308.86 64.76 310.11 65.06 311.69 65.06ZM331.522 77.42C329.982 77.42 328.662 77.15 327.562 76.61C326.482 76.05 325.662 75.29 325.102 74.33C324.542 73.37 324.262 72.28 324.262 71.06H326.692C326.692 72.3 327.102 73.31 327.922 74.09C328.742 74.85 329.942 75.23 331.522 75.23C333.182 75.23 334.452 74.79 335.332 73.91C336.232 73.01 336.682 71.78 336.682 70.22V67.31H336.292C335.912 67.91 335.302 68.47 334.462 68.99C333.642 69.49 332.482 69.74 330.982 69.74C329.722 69.74 328.562 69.46 327.502 68.9C326.462 68.34 325.632 67.55 325.012 66.53C324.392 65.51 324.082 64.3 324.082 62.9V62.54C324.082 61.1 324.412 59.87 325.072 58.85C325.732 57.81 326.622 57.01 327.742 56.45C328.882 55.87 330.172 55.58 331.612 55.58C333.072 55.58 334.362 55.87 335.482 56.45C336.622 57.01 337.512 57.82 338.152 58.88C338.792 59.92 339.112 61.18 339.112 62.66V69.98C339.112 71.54 338.802 72.88 338.182 74C337.582 75.1 336.712 75.95 335.572 76.55C334.432 77.13 333.082 77.42 331.522 77.42ZM331.612 67.7C332.612 67.7 333.492 67.5 334.252 67.1C335.012 66.68 335.602 66.11 336.022 65.39C336.462 64.65 336.682 63.79 336.682 62.81V62.57C336.682 61.07 336.212 59.9 335.272 59.06C334.352 58.2 333.132 57.77 331.612 57.77C330.092 57.77 328.862 58.2 327.922 59.06C326.982 59.9 326.512 61.07 326.512 62.57V62.81C326.512 63.79 326.722 64.65 327.142 65.39C327.582 66.11 328.182 66.68 328.942 67.1C329.722 67.5 330.612 67.7 331.612 67.7ZM352.021 77.42C349.641 77.42 347.741 76.72 346.321 75.32C344.921 73.9 344.221 71.78 344.221 68.96V64.04C344.221 61.24 344.921 59.13 346.321 57.71C347.741 56.29 349.641 55.58 352.021 55.58C354.421 55.58 356.321 56.29 357.721 57.71C359.141 59.13 359.851 61.24 359.851 64.04V68.96C359.851 71.78 359.141 73.9 357.721 75.32C356.321 76.72 354.421 77.42 352.021 77.42ZM352.021 75.23C353.821 75.23 355.171 74.69 356.071 73.61C356.971 72.53 357.421 71.02 357.421 69.08V63.89C357.421 61.95 356.961 60.45 356.041 59.39C355.121 58.31 353.781 57.77 352.021 57.77C350.261 57.77 348.921 58.31 348.001 59.39C347.101 60.47 346.651 61.97 346.651 63.89V69.08C346.651 71.04 347.101 72.56 348.001 73.64C348.901 74.7 350.241 75.23 352.021 75.23Z" fill="#2B2B2B"/>
<path d="M46.9082 210V190.62H46.4582L42.3782 198.09H39.7382L44.7482 189H49.3382V210H46.9082ZM54.8273 210V207.81C54.8273 206.31 55.0873 205.11 55.6073 204.21C56.1473 203.31 56.8873 202.59 57.8273 202.05C58.7873 201.49 59.9273 201.01 61.2473 200.61L62.8973 200.1C63.7973 199.82 64.5873 199.48 65.2673 199.08C65.9473 198.66 66.4773 198.14 66.8573 197.52C67.2373 196.88 67.4273 196.1 67.4273 195.18V195.06C67.4273 193.74 66.9673 192.7 66.0473 191.94C65.1273 191.16 63.9473 190.77 62.5073 190.77C60.9873 190.77 59.7473 191.18 58.7873 192C57.8273 192.8 57.3473 194.02 57.3473 195.66V196.08H54.9473V195.69C54.9473 194.17 55.2773 192.88 55.9373 191.82C56.5973 190.76 57.4973 189.96 58.6373 189.42C59.7773 188.86 61.0673 188.58 62.5073 188.58C63.9473 188.58 65.2173 188.85 66.3173 189.39C67.4373 189.93 68.3073 190.68 68.9273 191.64C69.5473 192.6 69.8573 193.72 69.8573 195V195.27C69.8573 196.63 69.5873 197.76 69.0473 198.66C68.5073 199.54 67.7573 200.26 66.7973 200.82C65.8573 201.38 64.7473 201.86 63.4673 202.26L61.8473 202.77C60.8273 203.09 59.9773 203.43 59.2973 203.79C58.6373 204.13 58.1373 204.57 57.7973 205.11C57.4573 205.65 57.2873 206.38 57.2873 207.3V207.81H69.6773V210H54.8273ZM81.7863 210.42C80.3063 210.42 78.9763 210.14 77.7963 209.58C76.6363 209.02 75.7163 208.21 75.0363 207.15C74.3763 206.09 74.0463 204.81 74.0463 203.31V202.74H76.4763V203.28C76.4763 204.82 76.9663 206.03 77.9463 206.91C78.9263 207.79 80.2063 208.23 81.7863 208.23C83.3863 208.23 84.6263 207.82 85.5063 207C86.4063 206.16 86.8563 205.11 86.8563 203.85V203.61C86.8563 202.69 86.6363 201.95 86.1963 201.39C85.7563 200.81 85.1563 200.39 84.3963 200.13C83.6563 199.85 82.8363 199.71 81.9363 199.71H78.5163V196.68L86.5263 191.55V191.19H74.5563V189H89.1063V192.39L81.2763 197.43V197.79H82.7763C83.9563 197.79 85.0363 198.01 86.0163 198.45C87.0163 198.87 87.8063 199.51 88.3863 200.37C88.9863 201.21 89.2863 202.27 89.2863 203.55V203.88C89.2863 205.2 88.9763 206.35 88.3563 207.33C87.7363 208.31 86.8663 209.07 85.7463 209.61C84.6263 210.15 83.3063 210.42 81.7863 210.42Z" fill="#2B2B2B"/>
<path d="M172.119 219V212.184H155.607V205.08L167.223 185.4H178.263V206.712H183.831V212.184H178.263V219H172.119ZM161.463 206.712H172.119V189.336H171.255L161.463 205.944V206.712ZM189.543 219V185.4H210.663V191.16H195.879V199.272H209.511V205.032H195.879V219H189.543ZM229.068 219.672C225.1 219.672 221.916 218.584 219.516 216.408C217.116 214.2 215.916 210.872 215.916 206.424V197.976C215.916 193.656 217.116 190.376 219.516 188.136C221.916 185.864 225.1 184.728 229.068 184.728C233.068 184.728 236.252 185.864 238.62 188.136C241.02 190.376 242.22 193.656 242.22 197.976V206.424C242.22 210.872 241.02 214.2 238.62 216.408C236.252 218.584 233.068 219.672 229.068 219.672ZM229.068 214.2C231.468 214.2 233.228 213.544 234.348 212.232C235.5 210.92 236.076 209.048 236.076 206.616V197.688C236.076 195.224 235.436 193.368 234.156 192.12C232.908 190.84 231.212 190.2 229.068 190.2C226.86 190.2 225.132 190.856 223.884 192.168C222.668 193.48 222.06 195.32 222.06 197.688V206.616C222.06 209.144 222.636 211.048 223.788 212.328C224.972 213.576 226.732 214.2 229.068 214.2Z" fill="#3136E5"/>
<path d="M300.865 219.672C296.897 219.672 293.713 218.584 291.312 216.408C288.913 214.2 287.713 210.872 287.713 206.424V197.976C287.713 193.656 288.913 190.376 291.312 188.136C293.713 185.864 296.897 184.728 300.865 184.728C304.865 184.728 308.049 185.864 310.417 188.136C312.817 190.376 314.017 193.656 314.017 197.976V206.424C314.017 210.872 312.817 214.2 310.417 216.408C308.049 218.584 304.865 219.672 300.865 219.672ZM300.865 214.2C303.265 214.2 305.025 213.544 306.145 212.232C307.297 210.92 307.873 209.048 307.873 206.616V197.688C307.873 195.224 307.233 193.368 305.953 192.12C304.705 190.84 303.009 190.2 300.865 190.2C298.657 190.2 296.929 190.856 295.681 192.168C294.465 193.48 293.857 195.32 293.857 197.688V206.616C293.857 209.144 294.433 211.048 295.585 212.328C296.769 213.576 298.529 214.2 300.865 214.2ZM333.49 219.672C329.522 219.672 326.338 218.584 323.938 216.408C321.538 214.2 320.338 210.872 320.338 206.424V197.976C320.338 193.656 321.538 190.376 323.938 188.136C326.338 185.864 329.522 184.728 333.49 184.728C337.49 184.728 340.674 185.864 343.042 188.136C345.442 190.376 346.642 193.656 346.642 197.976V206.424C346.642 210.872 345.442 214.2 343.042 216.408C340.674 218.584 337.49 219.672 333.49 219.672ZM333.49 214.2C335.89 214.2 337.65 213.544 338.77 212.232C339.922 210.92 340.498 209.048 340.498 206.616V197.688C340.498 195.224 339.858 193.368 338.578 192.12C337.33 190.84 335.634 190.2 333.49 190.2C331.282 190.2 329.554 190.856 328.306 192.168C327.09 193.48 326.482 195.32 326.482 197.688V206.616C326.482 209.144 327.058 211.048 328.21 212.328C329.394 213.576 331.154 214.2 333.49 214.2ZM366.115 219.672C362.147 219.672 358.963 218.584 356.562 216.408C354.163 214.2 352.963 210.872 352.963 206.424V197.976C352.963 193.656 354.163 190.376 356.562 188.136C358.963 185.864 362.147 184.728 366.115 184.728C370.115 184.728 373.299 185.864 375.667 188.136C378.067 190.376 379.267 193.656 379.267 197.976V206.424C379.267 210.872 378.067 214.2 375.667 216.408C373.299 218.584 370.115 219.672 366.115 219.672ZM366.115 214.2C368.515 214.2 370.275 213.544 371.395 212.232C372.547 210.92 373.123 209.048 373.123 206.616V197.688C373.123 195.224 372.483 193.368 371.203 192.12C369.955 190.84 368.259 190.2 366.115 190.2C363.907 190.2 362.179 190.856 360.931 192.168C359.715 193.48 359.107 195.32 359.107 197.688V206.616C359.107 209.144 359.683 211.048 360.835 212.328C362.019 213.576 363.779 214.2 366.115 214.2Z" fill="#3136E5"/>
<path d="M50.1489 343.42C48.6089 343.42 47.2789 343.13 46.1589 342.55C45.0389 341.95 44.1689 341.13 43.5489 340.09C42.9289 339.03 42.6189 337.81 42.6189 336.43V336.07H45.0489V336.34C45.0489 337.92 45.5089 339.13 46.4289 339.97C47.3489 340.81 48.5689 341.23 50.0889 341.23C51.6889 341.23 52.9389 340.78 53.8389 339.88C54.7389 338.98 55.1889 337.75 55.1889 336.19V335.92C55.1889 334.42 54.7489 333.23 53.8689 332.35C53.0089 331.45 51.8889 331 50.5089 331C49.7089 331 49.0489 331.13 48.5289 331.39C48.0089 331.63 47.5989 331.94 47.2989 332.32C46.9989 332.68 46.7489 333.03 46.5489 333.37H43.2489V322H57.0489V324.19H45.6789V331.45H46.0989C46.3189 331.05 46.6189 330.66 46.9989 330.28C47.3989 329.9 47.9289 329.58 48.5889 329.32C49.2489 329.06 50.0689 328.93 51.0489 328.93C52.2689 328.93 53.3689 329.21 54.3489 329.77C55.3489 330.33 56.1389 331.13 56.7189 332.17C57.3189 333.21 57.6189 334.45 57.6189 335.89V336.22C57.6189 337.64 57.3189 338.89 56.7189 339.97C56.1189 341.05 55.2589 341.9 54.1389 342.52C53.0189 343.12 51.6889 343.42 50.1489 343.42ZM69.8479 343.42C68.4079 343.42 67.1179 343.14 65.9779 342.58C64.8579 342 63.9679 341.18 63.3079 340.12C62.6679 339.06 62.3479 337.8 62.3479 336.34V329.02C62.3479 327.44 62.6579 326.1 63.2779 325C63.8979 323.9 64.7679 323.06 65.8879 322.48C67.0279 321.88 68.3779 321.58 69.9379 321.58C71.4779 321.58 72.7879 321.86 73.8679 322.42C74.9679 322.96 75.7979 323.71 76.3579 324.67C76.9379 325.61 77.2279 326.7 77.2279 327.94H74.7679C74.7679 326.7 74.3679 325.7 73.5679 324.94C72.7679 324.16 71.5579 323.77 69.9379 323.77C68.2979 323.77 67.0279 324.22 66.1279 325.12C65.2279 326 64.7779 327.22 64.7779 328.78V331.69H65.1979C65.5579 331.09 66.1579 330.54 66.9979 330.04C67.8379 329.52 69.0079 329.26 70.5079 329.26C71.7679 329.26 72.9179 329.54 73.9579 330.1C74.9979 330.66 75.8279 331.45 76.4479 332.47C77.0679 333.49 77.3779 334.7 77.3779 336.1V336.46C77.3779 337.88 77.0479 339.11 76.3879 340.15C75.7479 341.19 74.8579 342 73.7179 342.58C72.5779 343.14 71.2879 343.42 69.8479 343.42ZM69.8479 341.23C71.3679 341.23 72.5979 340.8 73.5379 339.94C74.4779 339.08 74.9479 337.91 74.9479 336.43V336.19C74.9479 335.19 74.7279 334.33 74.2879 333.61C73.8679 332.89 73.2779 332.33 72.5179 331.93C71.7579 331.51 70.8679 331.3 69.8479 331.3C68.8479 331.3 67.9679 331.51 67.2079 331.93C66.4479 332.33 65.8479 332.89 65.4079 333.61C64.9879 334.33 64.7779 335.19 64.7779 336.19V336.43C64.7779 337.91 65.2479 339.08 66.1879 339.94C67.1279 340.8 68.3479 341.23 69.8479 341.23ZM84.5375 343V342.25C84.5375 341.55 84.5975 340.96 84.7175 340.48C84.8375 340 85.0675 339.43 85.4075 338.77L93.4175 324.52V324.19H80.9375V322H95.9675V324.88L87.5975 339.88C87.3575 340.3 87.1875 340.68 87.0875 341.02C87.0075 341.36 86.9675 341.79 86.9675 342.31V343H84.5375Z" fill="#2B2B2B"/>
<path d="M181.69 343.42C180.07 343.42 178.66 343.18 177.46 342.7C176.28 342.2 175.36 341.51 174.7 340.63C174.06 339.73 173.74 338.68 173.74 337.48V337.15C173.74 336.11 173.96 335.25 174.4 334.57C174.84 333.89 175.37 333.37 175.99 333.01C176.63 332.63 177.22 332.39 177.76 332.29V331.9C177.22 331.74 176.66 331.48 176.08 331.12C175.52 330.76 175.05 330.27 174.67 329.65C174.31 329.03 174.13 328.27 174.13 327.37V327.04C174.13 325.9 174.45 324.93 175.09 324.13C175.75 323.31 176.65 322.68 177.79 322.24C178.93 321.8 180.23 321.58 181.69 321.58C183.17 321.58 184.47 321.8 185.59 322.24C186.73 322.68 187.62 323.31 188.26 324.13C188.92 324.93 189.25 325.9 189.25 327.04V327.37C189.25 328.27 189.07 329.03 188.71 329.65C188.35 330.27 187.89 330.76 187.33 331.12C186.77 331.48 186.21 331.74 185.65 331.9V332.29C186.21 332.39 186.8 332.63 187.42 333.01C188.04 333.37 188.56 333.89 188.98 334.57C189.42 335.25 189.64 336.11 189.64 337.15V337.48C189.64 338.68 189.32 339.73 188.68 340.63C188.04 341.51 187.12 342.2 185.92 342.7C184.74 343.18 183.33 343.42 181.69 343.42ZM181.69 341.23C183.39 341.23 184.73 340.9 185.71 340.24C186.71 339.58 187.21 338.62 187.21 337.36V337.12C187.21 335.86 186.72 334.9 185.74 334.24C184.76 333.58 183.41 333.25 181.69 333.25C179.99 333.25 178.65 333.58 177.67 334.24C176.69 334.9 176.2 335.86 176.2 337.12V337.36C176.2 338.62 176.69 339.58 177.67 340.24C178.67 340.9 180.01 341.23 181.69 341.23ZM181.69 331.06C183.29 331.06 184.54 330.76 185.44 330.16C186.36 329.54 186.82 328.67 186.82 327.55V327.31C186.82 326.17 186.36 325.3 185.44 324.7C184.52 324.08 183.27 323.77 181.69 323.77C180.11 323.77 178.86 324.08 177.94 324.7C177.02 325.3 176.56 326.17 176.56 327.31V327.55C176.56 328.67 177.02 329.54 177.94 330.16C178.86 330.76 180.11 331.06 181.69 331.06ZM201.522 343.42C199.982 343.42 198.662 343.15 197.562 342.61C196.482 342.05 195.662 341.29 195.102 340.33C194.542 339.37 194.262 338.28 194.262 337.06H196.692C196.692 338.3 197.102 339.31 197.922 340.09C198.742 340.85 199.942 341.23 201.522 341.23C203.182 341.23 204.452 340.79 205.332 339.91C206.232 339.01 206.682 337.78 206.682 336.22V333.31H206.292C205.912 333.91 205.302 334.47 204.462 334.99C203.642 335.49 202.482 335.74 200.982 335.74C199.722 335.74 198.562 335.46 197.502 334.9C196.462 334.34 195.632 333.55 195.012 332.53C194.392 331.51 194.082 330.3 194.082 328.9V328.54C194.082 327.1 194.412 325.87 195.072 324.85C195.732 323.81 196.622 323.01 197.742 322.45C198.882 321.87 200.172 321.58 201.612 321.58C203.072 321.58 204.362 321.87 205.482 322.45C206.622 323.01 207.512 323.82 208.152 324.88C208.792 325.92 209.112 327.18 209.112 328.66V335.98C209.112 337.54 208.802 338.88 208.182 340C207.582 341.1 206.712 341.95 205.572 342.55C204.432 343.13 203.082 343.42 201.522 343.42ZM201.612 333.7C202.612 333.7 203.492 333.5 204.252 333.1C205.012 332.68 205.602 332.11 206.022 331.39C206.462 330.65 206.682 329.79 206.682 328.81V328.57C206.682 327.07 206.212 325.9 205.272 325.06C204.352 324.2 203.132 323.77 201.612 323.77C200.092 323.77 198.862 324.2 197.922 325.06C196.982 325.9 196.512 327.07 196.512 328.57V328.81C196.512 329.79 196.722 330.65 197.142 331.39C197.582 332.11 198.182 332.68 198.942 333.1C199.722 333.5 200.612 333.7 201.612 333.7ZM222.021 343.42C219.641 343.42 217.741 342.72 216.321 341.32C214.921 339.9 214.221 337.78 214.221 334.96V330.04C214.221 327.24 214.921 325.13 216.321 323.71C217.741 322.29 219.641 321.58 222.021 321.58C224.421 321.58 226.321 322.29 227.721 323.71C229.141 325.13 229.851 327.24 229.851 330.04V334.96C229.851 337.78 229.141 339.9 227.721 341.32C226.321 342.72 224.421 343.42 222.021 343.42ZM222.021 341.23C223.821 341.23 225.171 340.69 226.071 339.61C226.971 338.53 227.421 337.02 227.421 335.08V329.89C227.421 327.95 226.961 326.45 226.041 325.39C225.121 324.31 223.781 323.77 222.021 323.77C220.261 323.77 218.921 324.31 218.001 325.39C217.101 326.47 216.651 327.97 216.651 329.89V335.08C216.651 337.04 217.101 338.56 218.001 339.64C218.901 340.7 220.241 341.23 222.021 341.23Z" fill="#2B2B2B"/>
<path d="M314.908 343V323.62H314.458L310.378 331.09H307.738L312.748 322H317.338V343H314.908ZM322.827 343V340.81C322.827 339.31 323.087 338.11 323.607 337.21C324.147 336.31 324.887 335.59 325.827 335.05C326.787 334.49 327.927 334.01 329.247 333.61L330.897 333.1C331.797 332.82 332.587 332.48 333.267 332.08C333.947 331.66 334.477 331.14 334.857 330.52C335.237 329.88 335.427 329.1 335.427 328.18V328.06C335.427 326.74 334.967 325.7 334.047 324.94C333.127 324.16 331.947 323.77 330.507 323.77C328.987 323.77 327.747 324.18 326.787 325C325.827 325.8 325.347 327.02 325.347 328.66V329.08H322.947V328.69C322.947 327.17 323.277 325.88 323.937 324.82C324.597 323.76 325.497 322.96 326.637 322.42C327.777 321.86 329.067 321.58 330.507 321.58C331.947 321.58 333.217 321.85 334.317 322.39C335.437 322.93 336.307 323.68 336.927 324.64C337.547 325.6 337.857 326.72 337.857 328V328.27C337.857 329.63 337.587 330.76 337.047 331.66C336.507 332.54 335.757 333.26 334.797 333.82C333.857 334.38 332.747 334.86 331.467 335.26L329.847 335.77C328.827 336.09 327.977 336.43 327.297 336.79C326.637 337.13 326.137 337.57 325.797 338.11C325.457 338.65 325.287 339.38 325.287 340.3V340.81H337.677V343H322.827ZM349.786 343.42C348.306 343.42 346.976 343.14 345.796 342.58C344.636 342.02 343.716 341.21 343.036 340.15C342.376 339.09 342.046 337.81 342.046 336.31V335.74H344.476V336.28C344.476 337.82 344.966 339.03 345.946 339.91C346.926 340.79 348.206 341.23 349.786 341.23C351.386 341.23 352.626 340.82 353.506 340C354.406 339.16 354.856 338.11 354.856 336.85V336.61C354.856 335.69 354.636 334.95 354.196 334.39C353.756 333.81 353.156 333.39 352.396 333.13C351.656 332.85 350.836 332.71 349.936 332.71H346.516V329.68L354.526 324.55V324.19H342.556V322H357.106V325.39L349.276 330.43V330.79H350.776C351.956 330.79 353.036 331.01 354.016 331.45C355.016 331.87 355.806 332.51 356.386 333.37C356.986 334.21 357.286 335.27 357.286 336.55V336.88C357.286 338.2 356.976 339.35 356.356 340.33C355.736 341.31 354.866 342.07 353.746 342.61C352.626 343.15 351.306 343.42 349.786 343.42Z" fill="#2B2B2B"/>
</svg>
